<svg width="154.000000" height="89.000000" viewBox="0 0 154 89" fill="none" xmlns="http://www.w3.org/2000/svg" xmlns:xlink="http://www.w3.org/1999/xlink">
	<desc>
			Created with Pixso.
	</desc>
	<defs/>
	<rect id="фрейм 1" width="154.598511" height="89.050781" transform="translate(-0.707031 -0.770508)" fill="#FFFFFF" fill-opacity="0"/>
	<path id="Форма 6" d="M117.44 88.28C116.04 88.28 114.68 87.93 113.35 87.23C112.01 86.53 111.06 85.39 110.49 83.81C110.42 83.62 110.49 83.48 110.67 83.37C110.86 83.28 111.01 83.39 111.14 83.72C111.77 84.93 112.58 85.81 113.55 86.37C114.55 86.94 115.59 87.23 116.67 87.23C116.92 87.23 117.18 87.21 117.46 87.18C117.76 87.15 118.04 87.1 118.3 87.04C120.45 86.53 122.15 85.26 123.39 83.23C124.63 81.2 125.52 78.82 126.04 76.09C126.59 73.36 126.92 70.62 127.04 67.86C127.18 65.1 127.21 62.73 127.14 60.76C125.37 61.77 123.55 62.66 121.67 63.44C119.8 64.2 117.84 64.82 115.81 65.32C114.87 65.58 113.77 65.79 112.53 65.95C111.29 66.1 109.97 66.18 108.58 66.18C106.1 66.18 103.66 65.72 101.28 64.81C98.9 63.88 97.27 62.11 96.37 59.51C96.12 58.89 95.96 58.24 95.9 57.58C95.84 56.89 95.81 56.24 95.81 55.62C95.81 53.78 96.08 51.98 96.62 50.23C97.17 48.47 97.75 46.9 98.37 45.51C96.91 44.62 95.62 43.54 94.51 42.27C93.41 41 92.57 39.54 92 37.9C91.75 37.14 91.55 36.38 91.41 35.62C91.29 34.85 91.23 34.11 91.23 33.41C91.23 30.56 92.02 27.95 93.6 25.57C95.2 23.19 97.17 21.17 99.51 19.53C101.86 17.87 104.19 16.78 106.48 16.27C106.73 16.21 107.31 16.12 108.23 15.99C109.16 15.85 110.04 15.78 110.86 15.78C111.88 15.78 112.42 15.91 112.49 16.18C112.61 16.43 112.51 16.55 112.18 16.55C111.3 16.55 110.45 16.55 109.62 16.55C108.8 16.55 107.94 16.64 107.04 16.83C104.89 17.34 102.78 18.35 100.72 19.85C98.65 21.34 96.94 23.16 95.58 25.32C94.21 27.47 93.53 29.85 93.53 32.46C93.53 33.16 93.59 33.87 93.72 34.6C93.84 35.33 94.03 36.08 94.27 36.85C95.24 39.52 96.96 41.71 99.44 43.41C101.53 39.41 103.84 35.91 106.37 32.9C108.91 29.88 111.58 26.99 114.37 24.23C117.18 21.47 120 18.53 122.86 15.41C122.86 14.84 122.84 14.23 122.81 13.6C122.78 12.96 122.76 12.33 122.76 11.69C122.76 10.17 122.84 8.64 123 7.08C123.17 5.52 123.5 4.17 124 3.04C124.38 2.2 124.88 1.36 125.49 0.5C126.09 -0.35 126.87 -0.78 127.81 -0.78C128.45 -0.78 128.98 -0.57 129.42 -0.15C129.87 0.25 130.22 0.77 130.49 1.41C130.73 1.98 130.86 2.68 130.86 3.5C130.86 4.9 130.49 6.29 129.77 7.69C129.04 9.08 128.19 10.37 127.23 11.55C126.28 12.73 125.43 13.76 124.67 14.64C124.67 17.25 124.87 19.9 125.28 22.6C125.7 25.29 126.1 27.95 126.49 30.55C127.94 28.72 129.67 27 131.67 25.39C133.67 23.76 135.85 22.66 138.21 22.09C138.97 21.88 139.79 21.78 140.67 21.78C141.94 21.78 143.17 22.09 144.35 22.69C145.53 23.29 146.39 24.43 146.95 26.09C147.34 27.23 147.53 28.5 147.53 29.9C147.53 31.54 147.31 33.24 146.86 34.99C146.42 36.73 145.98 38.23 145.53 39.51C144.08 43.44 142.08 46.99 139.53 50.13C136.99 53.28 134.04 55.96 130.67 58.18C130.73 59.2 130.8 60.26 130.86 61.34C130.92 62.41 130.95 63.49 130.95 64.58C130.95 67.88 130.65 71.2 130.04 74.53C129.44 77.86 128.35 80.75 126.76 83.18C125.18 85.63 122.83 87.24 119.72 88C119.08 88.18 118.32 88.28 117.44 88.28ZM124.67 13.32C125.12 12.81 125.71 11.93 126.44 10.69C127.17 9.45 127.82 8.13 128.39 6.74C128.97 5.34 129.25 4.2 129.25 3.32C129.25 2.93 129.21 2.67 129.14 2.55C129.08 2.36 128.98 2.18 128.86 1.99C128.73 1.79 128.55 1.69 128.3 1.69C127.91 1.69 127.51 1.96 127.09 2.5C126.69 3.05 126.42 3.5 126.3 3.88C125.73 5.08 125.32 6.63 125.09 8.5C124.87 10.38 124.73 11.98 124.67 13.32ZM105.9 45.51C108 45.51 110.01 45.02 111.95 44.04C113.89 43.05 115.68 41.82 117.32 40.37C118.98 38.91 120.43 37.5 121.67 36.13C122.91 34.77 123.85 33.71 124.49 32.95C124.16 30.22 123.85 27.5 123.56 24.81C123.28 22.09 123.04 19.37 122.86 16.64C121.34 18.3 119.78 19.93 118.18 21.53C116.6 23.11 115.08 24.75 113.62 26.46C111.97 28.37 110.42 30.38 109 32.5C107.57 34.63 106.25 36.84 105.04 39.13C104.53 40.02 104.05 40.94 103.6 41.9C103.17 42.85 102.72 43.83 102.28 44.85C103.42 45.29 104.63 45.51 105.9 45.51ZM130.39 56.76C133.37 54.86 135.98 52.61 138.23 50.04C140.49 47.47 142.26 44.44 143.53 40.95C144.11 39.35 144.52 37.9 144.77 36.6C145.03 35.3 145.16 34.11 145.16 33.04C145.16 30.5 144.56 28.59 143.35 27.32C142.14 26.05 140.58 25.41 138.67 25.41C136.95 25.41 135.04 25.94 132.95 26.99C130.86 28.03 128.77 29.6 126.67 31.69C127.31 35.89 128.02 40.09 128.81 44.27C129.6 48.46 130.13 52.62 130.39 56.76ZM112.09 63.41C113.18 63.41 114.24 63.34 115.28 63.18C116.33 63.03 117.27 62.86 118.09 62.67C121.27 61.89 124.22 60.75 126.95 59.23C126.89 55.04 126.62 50.84 126.14 46.62C125.67 42.39 125.18 38.15 124.67 33.9C123.97 35.09 122.99 36.47 121.72 38.04C120.45 39.59 118.95 41.08 117.23 42.51C115.52 43.93 113.67 45.13 111.67 46.09C109.67 47.03 107.59 47.51 105.44 47.51C104.17 47.51 102.9 47.32 101.62 46.95C101.36 47.83 101.12 48.82 100.9 49.9C100.69 50.97 100.58 52.05 100.58 53.13C100.58 54.47 100.76 55.8 101.14 57.13C102.03 59.55 103.55 61.2 105.67 62.09C107.79 62.97 109.93 63.41 112.09 63.41Z" fill="#FFA55C" fill-opacity="1.000000" fill-rule="nonzero"/>
	<path id="Форма 5" d="M6.1 67.47Q5.86 67.47 5.63 67.41Q4.68 67.2 3.94 66.05Q3.03 64.63 2.64 61.47Q2.59 61.22 2.59 60.87L2.59 60.12Q2.59 58.54 2.78 56.11Q2.98 53.69 3.26 50.77Q3.55 47.84 3.81 44.75Q4.08 41.64 4.27 38.66Q4.47 35.69 4.47 33.25Q4.47 30.21 4.08 28.35Q3.76 26.78 2.99 26.52Q2.85 26.48 2.69 26.48Q2.67 26.48 2.65 26.48L2.65 26.48Q2.05 26.5 1.47 27.18Q0.87 27.87 0.41 28.71Q-0.04 29.55 -0.31 30.05Q-0.48 30.37 -0.56 30.35Q-0.6 30.34 -0.62 30.21Q-0.67 30.03 -0.69 29.86Q-0.71 29.69 -0.71 29.5Q-0.71 28.58 -0.29 27.58Q0.08 26.72 0.68 26.09L0.68 26.09Q0.79 25.98 0.91 25.88Q1.42 25.41 2.01 25.26L2.01 25.26Q2.31 25.17 2.64 25.17Q2.84 25.17 2.98 25.2Q3.12 25.22 3.27 25.28Q3.66 25.38 3.99 25.57L3.99 25.57Q5.27 26.3 5.8 28.35Q6.48 30.94 6.48 34.63Q6.48 37.42 6.21 40.54Q5.96 43.66 5.64 46.81Q5.33 49.95 5.07 52.78Q4.81 55.61 4.81 57.78Q4.81 58.4 4.83 58.95Q4.85 59.5 4.9 59.98Q5.29 63 5.96 64.22Q6.55 65.32 7.3 65.44Q7.39 65.45 7.49 65.45Q8.45 65.45 9.48 64.4Q10.51 63.34 11.52 61.76Q12.53 60.17 13.35 58.58Q14.45 56.52 15.37 53.75Q16.28 50.96 17.02 48.07Q17.77 45.19 18.19 42.8Q17.71 41.98 17.62 41.12Q17.52 40.26 17.52 38.91Q17.52 37.47 18.05 36.66Q18.56 35.87 19.11 35.84L19.11 35.84Q19.13 35.84 19.15 35.84Q19.33 35.84 19.49 35.9Q20.08 36.14 20.31 37.28Q20.84 39.67 21.37 42.34Q21.89 45 22.54 47.55Q23.18 50.09 24.05 52.26Q25.83 56.52 27.32 58.37Q28.81 60.21 30.05 60.21Q30.24 60.21 30.42 60.18Q31.49 59.97 32.33 58.56Q33.32 56.91 33.99 54.2Q34.66 51.48 35 48.3Q35.33 45.1 35.33 42.03Q35.33 39.48 35.11 37.28Q34.9 35.07 34.37 33.67Q34.17 33.1 34.08 32.48Q33.99 31.85 33.99 31.33Q33.99 30.65 34.15 30.17Q34.29 29.78 34.53 29.71Q34.59 29.69 34.66 29.69Q35.04 29.69 35.43 30.27Q35.96 30.94 36.41 32.12Q36.87 33.3 37.2 34.15Q37.58 35.11 38.21 36.48Q38.84 37.85 39.53 38.98Q40.22 40.1 40.9 40.35Q40.92 40.36 40.94 40.38Q41 40.43 41 40.54Q41 40.58 40.98 40.63Q40.93 40.86 40.56 41.02Q40.13 41.21 39.94 41.16Q38.84 40.63 38.09 40.03Q37.35 39.44 36.39 37.81Q36.44 38.66 36.44 39.55L36.44 41.31Q36.44 43.81 36.26 46.3Q36.1 48.8 35.62 51.34Q34.56 56.86 32.96 59.22Q31.44 61.43 29.77 61.55L29.77 61.55Q29.67 61.56 29.57 61.56Q29.54 61.56 29.51 61.56Q28.1 61.54 26.71 60.3Q25.3 59.02 24.1 56.91Q22.9 54.8 22.03 52.2Q21.27 49.7 20.73 47.62Q20.21 45.53 19.92 43.95Q19.15 47.41 17.92 50.82Q16.7 54.21 15.21 57.21Q13.73 60.21 12.12 62.52Q10.51 64.83 8.96 66.14Q7.4 67.47 6.1 67.47ZM99.56 80Q99.3 80 99.05 79.97Q97.11 79.78 95.3 78.17Q93.27 76.35 91.89 72.89Q90.53 69.44 90.29 64.54Q88.8 64.68 87.56 64.68Q84.77 64.68 83.49 63.95Q82.58 63.44 82.32 62.69Q82.23 62.41 82.23 62.09Q82.23 60.94 83.33 59.55Q84.43 58.15 86.4 56.75Q88.37 55.33 91.02 54.17Q91.92 49.28 93.96 43.6Q96.01 37.9 99.46 31.51Q99.64 31.18 99.91 31.03Q100.15 30.89 100.47 30.89Q100.63 30.89 100.78 30.93L100.78 30.93Q101.02 31 101.23 31.19Q101.36 31.29 101.44 31.43Q101.57 31.65 101.57 31.95Q101.57 32.18 101.42 32.57Q98.35 38.77 96.31 43.92Q94.27 49.08 93.12 53.36Q95.28 52.54 97.73 52.01Q100.18 51.48 102.72 51.39Q103.34 51.39 103.39 51.55Q103.39 51.56 103.39 51.58Q103.39 51.58 103.39 51.59Q103.38 51.78 102.93 51.94Q102.49 52.1 101.42 52.15Q99.08 52.3 96.93 52.81Q94.8 53.31 92.93 54.03Q92.21 56.82 91.82 59.19Q91.45 61.56 91.34 63.58Q96.29 62.52 100.34 60.48Q104.4 58.44 107.52 55.76Q110.64 53.07 112.75 50.18Q114.1 48.37 114.7 46.95Q115.3 45.53 115.3 44.48Q115.3 43.34 114.77 42.56Q114.59 42.28 114.34 42.05Q113.38 41.16 111.79 40.76Q110.21 40.35 108.34 40.35Q106.37 40.35 104.35 40.71Q102.34 41.07 100.71 41.69Q100.32 41.79 100.18 41.79Q99.76 41.79 99.62 41.6Q99.56 41.5 99.56 41.36Q99.56 41.25 99.59 41.15Q99.7 40.86 100.09 40.68Q105.99 37.33 108.49 34.6Q110.98 31.85 110.98 29.98Q110.98 29.29 110.71 28.73Q110.34 27.97 109.47 27.46Q107.96 26.57 105.51 26.57Q103.59 26.57 101.19 27.2Q98.78 27.82 96.24 29.21Q94.13 30.37 92.42 31.92Q90.72 33.48 89.54 35.15Q88.37 36.8 87.79 38.26Q87.33 39.43 87.33 40.31Q87.33 40.53 87.36 40.73Q87.36 40.83 87.38 40.95Q87.41 41.07 87.41 41.16Q87.41 42.05 87.01 42.29Q86.88 42.37 86.69 42.37Q86.35 42.37 85.99 41.89Q85.64 41.41 85.64 40.44Q85.64 39 86.52 37.37Q87.41 35.73 88.92 34.08Q90.43 32.43 92.3 30.96Q94.18 29.5 96.19 28.44Q98.78 27.05 101.3 26.38Q103.82 25.7 105.95 25.7Q108.86 25.7 110.69 26.86Q111.69 27.49 112.15 28.4Q112.52 29.14 112.52 30.07Q112.52 32 110.64 34.54Q108.77 37.08 104.35 40.15Q105.84 39.92 107.13 39.8Q108.43 39.67 109.54 39.67Q113.67 39.67 115.51 41.04Q116.58 41.84 117.03 42.9Q117.36 43.67 117.36 44.57Q117.36 46.15 116.47 48Q115.59 49.85 114.01 51.82Q111.7 54.65 108.22 57.3Q104.74 59.93 100.44 61.85Q96.15 63.78 91.3 64.44Q91.29 64.85 91.29 65.24Q91.29 68.98 92.09 71.5Q92.98 74.29 94.37 75.85Q95.76 77.41 97.16 78.05Q98.55 78.69 99.46 78.69Q100.13 78.69 100.37 78.46Q100.42 78.4 100.47 78.36Q100.66 78.21 100.95 78.21Q101.01 78.21 101.07 78.22Q101.38 78.26 101.67 78.51Q101.97 78.77 102 79.06L102 79.06Q102.01 79.1 102.01 79.13Q102.01 79.22 101.97 79.3Q101.9 79.47 101.67 79.56Q100.61 80 99.56 80ZM49.3 68.96Q48.95 68.96 48.69 68.8L48.69 68.8Q48.6 68.74 48.51 68.66Q48.37 68.53 48.34 68.38L48.34 68.38Q48.33 68.34 48.33 68.3Q48.33 68.16 48.43 68Q49.11 66.99 49.71 65.14Q50.31 63.3 50.76 61.28Q51.06 59.97 51.29 58.81Q51.19 58.9 51.08 59Q50.21 59.69 49.34 59.69Q48.7 59.69 48.27 59.38Q47.92 59.15 47.71 58.73Q46.9 57.14 46.9 55.88Q46.9 54.6 46.85 54.12Q46.61 54.69 45.93 55.92Q45.26 57.14 44.35 58.47Q43.45 59.79 42.44 60.71Q41.43 61.61 40.56 61.61Q40.1 61.61 39.77 61.4Q39.49 61.21 39.31 60.87Q38.94 60.12 38.94 59.11Q38.94 57.82 39.38 56.1Q39.84 54.37 40.6 52.51Q41.37 50.66 42.36 49.1Q43.34 47.55 44.44 46.56Q45.56 45.58 46.61 45.58Q46.93 45.58 47.22 45.67Q47.8 45.86 48.26 46.42Q48.68 46.92 48.85 47.48Q48.97 47.88 48.97 48.32Q48.97 48.94 48.77 49.35Q48.6 49.73 48.38 49.76L48.38 49.76Q48.35 49.76 48.33 49.76Q48.32 49.76 48.3 49.76Q48.13 49.73 48.01 49.47Q47.53 48.37 46.97 47.89Q46.47 47.45 45.94 47.41L45.94 47.41Q45.89 47.41 45.84 47.41Q45.82 47.41 45.8 47.41Q44.86 47.43 43.94 48.48Q43.01 49.56 42.44 50.96Q41.96 52.01 41.55 53.48Q41.14 54.94 40.87 56.36Q40.61 57.78 40.61 58.68Q40.61 60.03 41.13 60.27Q41.24 60.32 41.37 60.32Q42.33 60.32 43.82 58.2Q44.94 56.66 45.81 54.65Q46.71 52.63 47.33 51.14Q47.57 50.66 47.85 50.52Q48.15 50.38 48.39 50.38Q48.73 50.38 48.93 50.55Q49.06 50.66 49.13 50.86Q49.3 51.34 49.3 51.67Q49.3 52.92 49.05 53.91Q48.81 54.89 48.81 56.29Q48.81 57.3 48.98 58.14Q49.13 58.85 49.47 58.95Q49.52 58.97 49.59 58.97Q50.12 58.97 50.94 57.62Q51.05 57.39 51.23 57.3Q51.35 57.24 51.51 57.24Q51.55 57.24 51.6 57.24Q51.86 55.87 51.98 55.28Q51.34 54.66 51.18 53.94Q51.13 53.7 51.13 53.45Q51.13 52.68 51.48 52.15Q51.84 51.62 52.04 51.67Q52.13 51.67 52.3 51.75Q52.45 51.82 52.46 51.9L52.46 51.9Q52.46 51.91 52.46 51.92Q52.76 49.66 52.94 47.43Q53.14 45.19 53.14 43.33Q53.14 41.79 52.99 40.6Q52.85 39.39 52.57 38.66Q52.27 37.95 52.27 37.56Q52.27 37.16 52.45 37.06Q52.5 37.03 52.57 37.03Q52.64 37.03 52.7 37.05L52.7 37.05Q52.94 37.12 53.1 37.47Q53.62 38.52 53.88 40.78Q54.15 43.03 54.15 45.92Q54.15 47.89 54.04 50.08Q53.95 52.26 53.72 54.41Q54.58 53.64 55.49 52.9Q56.4 52.15 57.08 51.34L57.08 51.3Q57.08 51.28 57.08 51.26Q57.06 51.17 57 51.1Q56.93 51 56.93 50.82Q56.93 50.48 57.41 50Q57.89 49.51 58.67 48.62Q59.47 47.73 60.34 47Q61.2 46.26 61.92 46.3Q62.32 46.3 62.44 46.49Q62.49 46.57 62.49 46.68Q62.49 47.11 61.67 47.98Q60.86 48.85 59.74 49.81Q58.61 50.77 57.68 51.57Q56.74 52.35 56.45 52.63L54.63 54.65L53.67 55.66Q54.29 57.24 55.1 58.78Q55.92 60.32 56.95 61.33Q57.89 62.25 58.9 62.33Q59 62.33 59.1 62.33Q60.24 62.33 61.44 60.94Q62.26 59.93 62.83 58.69Q63.41 57.44 63.79 56.82Q63.92 56.58 64.03 56.42Q63.93 55.36 63.93 54.12Q63.93 51.24 64.65 49.49Q65.37 47.73 66.43 46.92Q67.5 46.1 68.46 46.1Q68.95 46.1 69.37 46.28L69.37 46.28Q69.76 46.45 70.07 46.76Q70.17 46.85 70.25 46.95Q70.75 47.57 70.75 48.6Q70.75 49.76 70.07 51.04Q69.46 52.19 68.63 53.16Q68.55 53.25 68.47 53.33Q67.54 54.37 66.63 54.69Q66.43 54.8 66.15 54.8Q66.04 54.8 65.99 54.74Q65.96 54.71 65.96 54.65Q65.96 54.27 66.72 53.79Q67.68 53.11 68.54 51.75Q69.41 50.38 69.41 49.33Q69.41 48.69 69.11 48.34Q68.9 48.07 68.64 48Q68.55 47.98 68.46 47.98Q67.73 47.98 66.89 49.1Q66.05 50.23 65.67 52.97Q65.57 53.73 65.49 54.44Q65.42 55.13 65.42 55.81Q65.42 58.49 66.24 60Q66.84 61.11 67.71 61.4Q68.04 61.51 68.4 61.51Q69.56 61.51 70.99 60.16Q72.43 58.78 73.82 55.85Q74.14 55.13 74.54 55.08L74.54 55.08Q74.57 55.08 74.6 55.08Q74.69 55.08 74.76 55.13Q74.88 55.21 74.88 55.47Q74.88 55.81 74.69 56.18Q73.45 59.26 71.67 60.94Q69.89 62.62 68.21 62.62Q67.91 62.62 67.62 62.55Q66.26 62.26 65.21 60.58Q64.58 59.57 64.26 57.99Q64.25 58.02 64.23 58.06Q63.75 59.02 63.29 59.86Q62.83 60.69 62.6 61.03Q61.68 62.38 60.77 63Q59.86 63.62 58.99 63.62Q58.91 63.62 58.82 63.62L58.82 63.62Q57.81 63.56 56.83 62.8Q55.78 62 54.89 60.71Q54 59.41 53.28 57.96Q52.76 61.61 51.98 64.51Q51.22 67.42 50.31 68.52Q50.04 68.79 49.72 68.89Q49.52 68.96 49.3 68.96ZM128.31 68.96Q127.96 68.96 127.7 68.8Q127.61 68.74 127.52 68.66Q127.38 68.53 127.35 68.38Q127.34 68.34 127.34 68.3Q127.34 68.16 127.44 68Q128.12 66.99 128.72 65.14Q129.31 63.3 129.77 61.28Q130.07 59.97 130.3 58.81Q130.2 58.9 130.08 59Q129.22 59.69 128.35 59.69Q127.71 59.69 127.27 59.38Q126.93 59.15 126.72 58.73Q125.91 57.14 125.91 55.88Q125.91 54.6 125.85 54.12Q125.62 54.69 124.94 55.92Q124.27 57.14 123.36 58.47Q122.46 59.79 121.45 60.71Q120.44 61.61 119.57 61.61Q119.11 61.61 118.78 61.4Q118.5 61.21 118.32 60.87Q117.94 60.12 117.94 59.11Q117.94 57.82 118.39 56.1Q118.85 54.37 119.61 52.51Q120.38 50.66 121.37 49.1Q122.35 47.55 123.45 46.56Q124.57 45.58 125.62 45.58Q125.94 45.58 126.23 45.67Q126.81 45.86 127.27 46.42Q127.69 46.92 127.86 47.48Q127.98 47.88 127.98 48.32Q127.98 48.94 127.78 49.35Q127.6 49.73 127.38 49.76Q127.36 49.76 127.34 49.76Q127.32 49.76 127.31 49.76Q127.14 49.73 127.01 49.47Q126.53 48.37 125.98 47.89Q125.48 47.45 124.95 47.41Q124.9 47.41 124.85 47.41Q124.83 47.41 124.81 47.41L124.81 47.41Q123.87 47.43 122.95 48.48Q122.02 49.56 121.45 50.96Q120.97 52.01 120.56 53.48Q120.15 54.94 119.88 56.36Q119.62 57.78 119.62 58.68Q119.62 60.03 120.14 60.27Q120.25 60.32 120.38 60.32Q121.34 60.32 122.83 58.2Q123.94 56.66 124.82 54.65Q125.71 52.63 126.33 51.14Q126.58 50.66 126.86 50.52Q127.16 50.38 127.4 50.38Q127.74 50.38 127.94 50.55Q128.07 50.66 128.14 50.86Q128.3 51.34 128.3 51.67Q128.3 52.92 128.06 53.91Q127.82 54.89 127.82 56.29Q127.82 57.3 127.99 58.14Q128.14 58.85 128.47 58.95Q128.53 58.97 128.6 58.97Q129.12 58.97 129.94 57.62Q130.06 57.39 130.24 57.3Q130.36 57.24 130.52 57.24Q130.56 57.24 130.6 57.24Q130.87 55.87 130.99 55.28Q130.35 54.66 130.19 53.94Q130.13 53.7 130.13 53.45Q130.13 52.68 130.49 52.15Q130.85 51.62 131.05 51.67Q131.14 51.67 131.31 51.75Q131.46 51.82 131.47 51.9Q131.47 51.91 131.47 51.92Q131.76 49.66 131.95 47.43Q132.15 45.19 132.15 43.33Q132.15 41.79 132 40.6Q131.86 39.39 131.58 38.66Q131.28 37.95 131.28 37.56Q131.28 37.16 131.45 37.06Q131.51 37.03 131.58 37.03Q131.64 37.03 131.71 37.05Q131.95 37.12 132.1 37.47Q132.63 38.52 132.89 40.78Q133.16 43.03 133.16 45.92Q133.16 47.89 133.05 50.08Q132.96 52.26 132.72 54.41Q133.59 53.64 134.49 52.9Q135.41 52.15 136.09 51.34L136.09 51.3Q136.09 51.28 136.09 51.26Q136.07 51.17 136 51.1Q135.94 51 135.94 50.82Q135.94 50.48 136.42 50Q136.9 49.51 137.68 48.62Q138.48 47.73 139.35 47Q140.21 46.26 140.93 46.3Q141.33 46.3 141.45 46.49Q141.5 46.57 141.5 46.68Q141.5 47.11 140.68 47.98Q139.87 48.85 138.75 49.81Q137.62 50.77 136.69 51.57Q135.75 52.35 135.45 52.63L133.64 54.65L132.68 55.66Q133.3 57.24 134.11 58.78Q134.93 60.32 135.96 61.33Q136.9 62.25 137.91 62.33Q138 62.33 138.1 62.33Q139.25 62.33 140.45 60.94Q141.27 59.93 141.84 58.69Q142.42 57.44 142.8 56.82Q142.92 56.58 143.04 56.42Q142.94 55.36 142.94 54.12Q142.94 51.24 143.66 49.49Q144.38 47.73 145.44 46.92Q146.5 46.1 147.47 46.1Q147.96 46.1 148.38 46.28Q148.76 46.45 149.08 46.76Q149.18 46.85 149.26 46.95L149.26 46.95Q149.76 47.57 149.76 48.6Q149.76 49.76 149.08 51.04Q148.47 52.19 147.64 53.16L147.63 53.16Q147.56 53.25 147.48 53.33Q146.55 54.37 145.64 54.69Q145.44 54.8 145.16 54.8Q145.04 54.8 145 54.74Q144.97 54.71 144.97 54.65Q144.97 54.27 145.73 53.79Q146.69 53.11 147.55 51.75Q148.41 50.38 148.41 49.33Q148.41 48.69 148.12 48.34Q147.91 48.07 147.65 48Q147.56 47.98 147.47 47.98Q146.74 47.98 145.89 49.1Q145.06 50.23 144.68 52.97Q144.58 53.73 144.5 54.44Q144.43 55.13 144.43 55.81Q144.43 58.49 145.25 60Q145.85 61.11 146.72 61.4Q147.05 61.51 147.41 61.51Q148.57 61.51 150 60.16Q151.44 58.78 152.83 55.85Q153.15 55.13 153.55 55.08Q153.58 55.08 153.61 55.08Q153.7 55.08 153.77 55.13Q153.89 55.21 153.89 55.47Q153.89 55.81 153.7 56.18Q152.46 59.26 150.68 60.94Q148.89 62.62 147.22 62.62Q146.92 62.62 146.63 62.55L146.63 62.55Q145.27 62.26 144.22 60.58Q143.59 59.57 143.27 57.99Q143.25 58.02 143.24 58.06Q142.75 59.02 142.3 59.86Q141.84 60.69 141.61 61.03Q140.69 62.38 139.78 63Q138.87 63.62 138 63.62Q137.91 63.62 137.83 63.62Q136.82 63.56 135.84 62.8Q134.79 62 133.9 60.71Q133 59.41 132.29 57.96Q131.76 61.61 130.99 64.51Q130.23 67.42 129.31 68.52Q129.05 68.79 128.73 68.89Q128.53 68.96 128.31 68.96ZM87.75 64.06Q88.27 64.06 88.89 63.99Q89.53 63.92 90.24 63.82Q90.23 63.32 90.23 62.8Q90.23 61.26 90.34 59.6Q90.49 57.39 90.86 54.99Q87.79 56.57 86.01 58.51Q84.24 60.46 84.24 61.95Q84.24 62.26 84.34 62.53Q84.54 63.07 85.11 63.46Q85.98 64.06 87.75 64.06Z" fill="#1F1711" fill-opacity="1.000000" fill-rule="evenodd"/>
</svg>
