<svg width="1838" height="1080" viewBox="0 0 1838 1080" fill="none" xmlns="http://www.w3.org/2000/svg">
<g opacity="0.2" clip-path="url(#clip0_2543_343)">
<path d="M142.097 796C63.5443 796 0 859.544 0 938.097C0 1016.46 63.5443 1080.19 142.097 1080.19C220.456 1080.19 284.195 1016.65 284.195 938.097C284 859.544 220.456 796 142.097 796ZM142.097 1071.03C68.6122 1071.03 9.16129 1011.58 9.16129 938.097C9.16129 864.612 68.6122 805.161 142.097 805.161C215.583 805.161 275.034 864.612 275.034 938.097C275.034 1011.39 215.388 1071.03 142.097 1071.03Z" fill="white"/>
<path d="M142.099 826.603C80.6986 826.603 30.7988 876.502 30.7988 937.902C30.7988 999.303 80.6986 1049.2 142.099 1049.2C203.499 1049.2 253.399 999.498 253.399 938.097C253.399 876.502 203.499 826.603 142.099 826.603ZM142.099 1032.24C90.0548 1032.24 47.757 989.946 47.757 937.902C47.757 885.859 90.0548 843.561 142.099 843.561C194.143 843.561 236.441 885.859 236.441 937.902C236.441 989.946 194.143 1032.24 142.099 1032.24Z" fill="white"/>
<path d="M142.098 875.527C107.597 875.527 79.5283 903.596 79.5283 938.097C79.5283 972.598 107.402 1000.67 142.098 1000.67C176.599 1000.67 204.668 972.598 204.668 938.097C204.473 903.596 176.599 875.527 142.098 875.527ZM142.098 971.623C123.58 971.623 108.572 956.614 108.572 938.097C108.572 919.579 123.58 904.571 142.098 904.571C160.616 904.571 175.624 919.579 175.624 938.097C175.624 956.614 160.616 971.623 142.098 971.623Z" fill="white"/>
</g>
<g opacity="0.8" clip-path="url(#clip1_2543_343)">
<path d="M1686.34 789.264C1686.34 790.784 1685.19 791.923 1683.67 791.923C1682.14 791.923 1681 790.784 1681 789.264C1681 787.745 1682.14 786.605 1683.67 786.605C1685.19 786.605 1686.34 787.872 1686.34 789.264Z" fill="white"/>
<path d="M1709.08 789.264C1709.08 790.784 1707.93 791.923 1706.41 791.923C1704.88 791.923 1703.74 790.784 1703.74 789.264C1703.74 787.745 1704.88 786.605 1706.41 786.605C1707.81 786.605 1709.08 787.872 1709.08 789.264Z" fill="white"/>
<path d="M1731.69 789.264C1731.69 790.784 1730.54 791.923 1729.02 791.923C1727.5 791.923 1726.35 790.784 1726.35 789.264C1726.35 787.745 1727.5 786.605 1729.02 786.605C1730.54 786.605 1731.69 787.872 1731.69 789.264Z" fill="white"/>
<path d="M1754.43 789.264C1754.43 790.784 1753.28 791.923 1751.76 791.923C1750.24 791.923 1749.09 790.784 1749.09 789.264C1749.09 787.745 1750.24 786.605 1751.76 786.605C1753.28 786.605 1754.43 787.872 1754.43 789.264Z" fill="white"/>
<path d="M1777.17 789.264C1777.17 790.784 1776.02 791.923 1774.5 791.923C1772.98 791.923 1771.83 790.784 1771.83 789.264C1771.83 787.745 1772.98 786.605 1774.5 786.605C1775.9 786.605 1777.17 787.872 1777.17 789.264Z" fill="white"/>
<path d="M1799.91 789.264C1799.91 790.784 1798.76 791.923 1797.24 791.923C1795.72 791.923 1794.57 790.784 1794.57 789.264C1794.57 787.745 1795.72 786.605 1797.24 786.605C1798.76 786.605 1799.91 787.872 1799.91 789.264Z" fill="white"/>
<path d="M1822.52 789.264C1822.52 790.784 1821.38 791.923 1819.85 791.923C1818.33 791.923 1817.18 790.784 1817.18 789.264C1817.18 787.745 1818.33 786.605 1819.85 786.605C1821.38 786.605 1822.52 787.872 1822.52 789.264Z" fill="white"/>
<path d="M1686.34 808.131C1686.34 809.65 1685.19 810.79 1683.67 810.79C1682.14 810.79 1681 809.65 1681 808.131C1681 806.611 1682.14 805.472 1683.67 805.472C1685.19 805.472 1686.34 806.611 1686.34 808.131Z" fill="white"/>
<path d="M1709.08 808.131C1709.08 809.65 1707.93 810.79 1706.41 810.79C1704.88 810.79 1703.74 809.65 1703.74 808.131C1703.74 806.611 1704.88 805.472 1706.41 805.472C1707.81 805.472 1709.08 806.611 1709.08 808.131Z" fill="white"/>
<path d="M1731.69 808.131C1731.69 809.65 1730.54 810.79 1729.02 810.79C1727.5 810.79 1726.35 809.65 1726.35 808.131C1726.35 806.611 1727.5 805.472 1729.02 805.472C1730.54 805.472 1731.69 806.611 1731.69 808.131Z" fill="white"/>
<path d="M1754.43 808.131C1754.43 809.65 1753.28 810.79 1751.76 810.79C1750.24 810.79 1749.09 809.65 1749.09 808.131C1749.09 806.611 1750.24 805.472 1751.76 805.472C1753.28 805.472 1754.43 806.611 1754.43 808.131Z" fill="white"/>
<path d="M1777.17 808.131C1777.17 809.65 1776.02 810.79 1774.5 810.79C1772.98 810.79 1771.83 809.65 1771.83 808.131C1771.83 806.611 1772.98 805.472 1774.5 805.472C1775.9 805.472 1777.17 806.611 1777.17 808.131Z" fill="white"/>
<path d="M1799.91 808.131C1799.91 809.65 1798.76 810.79 1797.24 810.79C1795.72 810.79 1794.57 809.65 1794.57 808.131C1794.57 806.611 1795.72 805.472 1797.24 805.472C1798.76 805.472 1799.91 806.611 1799.91 808.131Z" fill="white"/>
<path d="M1822.52 808.131C1822.52 809.65 1821.38 810.79 1819.85 810.79C1818.33 810.79 1817.18 809.65 1817.18 808.131C1817.18 806.611 1818.33 805.472 1819.85 805.472C1821.38 805.472 1822.52 806.611 1822.52 808.131Z" fill="white"/>
<path d="M1686.34 751.659C1686.34 753.178 1685.19 754.318 1683.67 754.318C1682.14 754.318 1681 753.178 1681 751.659C1681 750.14 1682.14 749 1683.67 749C1685.19 749 1686.34 750.14 1686.34 751.659Z" fill="white"/>
<path d="M1709.08 751.659C1709.08 753.178 1707.93 754.318 1706.41 754.318C1704.88 754.318 1703.74 753.178 1703.74 751.659C1703.74 750.14 1704.88 749 1706.41 749C1707.81 749 1709.08 750.14 1709.08 751.659Z" fill="white"/>
<path d="M1731.69 751.659C1731.69 753.178 1730.54 754.318 1729.02 754.318C1727.5 754.318 1726.35 753.178 1726.35 751.659C1726.35 750.14 1727.62 749 1729.02 749C1730.54 749 1731.69 750.14 1731.69 751.659Z" fill="white"/>
<path d="M1754.43 751.659C1754.43 753.178 1753.28 754.318 1751.76 754.318C1750.24 754.318 1749.09 753.178 1749.09 751.659C1749.09 750.14 1750.36 749 1751.76 749C1753.16 749 1754.43 750.14 1754.43 751.659Z" fill="white"/>
<path d="M1777.17 751.659C1777.17 753.178 1776.02 754.318 1774.5 754.318C1772.98 754.318 1771.83 753.178 1771.83 751.659C1771.83 750.14 1772.98 749 1774.5 749C1775.9 749 1777.17 750.14 1777.17 751.659Z" fill="white"/>
<path d="M1799.91 751.659C1799.91 753.178 1798.76 754.318 1797.24 754.318C1795.72 754.318 1794.57 753.178 1794.57 751.659C1794.57 750.14 1795.72 749 1797.24 749C1798.76 749 1799.91 750.14 1799.91 751.659Z" fill="white"/>
<path d="M1822.52 751.659C1822.52 753.178 1821.38 754.318 1819.85 754.318C1818.33 754.318 1817.18 753.178 1817.18 751.659C1817.18 750.14 1818.33 749 1819.85 749C1821.38 749 1822.52 750.14 1822.52 751.659Z" fill="white"/>
<path d="M1686.34 770.525C1686.34 772.045 1685.19 773.184 1683.67 773.184C1682.14 773.184 1681 771.918 1681 770.525C1681 769.006 1682.14 767.866 1683.67 767.866C1685.19 767.866 1686.34 769.006 1686.34 770.525Z" fill="white"/>
<path d="M1709.08 770.525C1709.08 772.045 1707.93 773.184 1706.41 773.184C1704.88 773.184 1703.74 772.045 1703.74 770.525C1703.74 769.006 1704.88 767.866 1706.41 767.866C1707.81 767.866 1709.08 769.006 1709.08 770.525Z" fill="white"/>
<path d="M1731.69 770.525C1731.69 772.045 1730.54 773.184 1729.02 773.184C1727.5 773.184 1726.35 772.045 1726.35 770.525C1726.35 769.006 1727.5 767.866 1729.02 767.866C1730.54 767.866 1731.69 769.006 1731.69 770.525Z" fill="white"/>
<path d="M1754.43 770.525C1754.43 772.045 1753.28 773.184 1751.76 773.184C1750.24 773.184 1749.09 772.045 1749.09 770.525C1749.09 769.006 1750.24 767.866 1751.76 767.866C1753.28 767.866 1754.43 769.006 1754.43 770.525Z" fill="white"/>
<path d="M1777.17 770.525C1777.17 772.045 1776.02 773.184 1774.5 773.184C1772.98 773.184 1771.83 772.045 1771.83 770.525C1771.83 769.006 1772.98 767.866 1774.5 767.866C1775.9 767.866 1777.17 769.006 1777.17 770.525Z" fill="white"/>
<path d="M1799.91 770.525C1799.91 772.045 1798.76 773.184 1797.24 773.184C1795.72 773.184 1794.57 772.045 1794.57 770.525C1794.57 769.006 1795.72 767.866 1797.24 767.866C1798.76 767.866 1799.91 769.006 1799.91 770.525Z" fill="white"/>
<path d="M1822.52 770.525C1822.52 772.045 1821.38 773.184 1819.85 773.184C1818.33 773.184 1817.18 772.045 1817.18 770.525C1817.18 769.006 1818.33 767.866 1819.85 767.866C1821.38 767.866 1822.52 769.006 1822.52 770.525Z" fill="white"/>
<path d="M1686.34 826.87C1686.34 828.389 1685.19 829.529 1683.67 829.529C1682.14 829.529 1681 828.389 1681 826.87C1681 825.35 1682.14 824.211 1683.67 824.211C1685.19 824.211 1686.34 825.477 1686.34 826.87Z" fill="white"/>
<path d="M1709.08 826.87C1709.08 828.389 1707.93 829.529 1706.41 829.529C1704.88 829.529 1703.74 828.389 1703.74 826.87C1703.74 825.35 1704.88 824.211 1706.41 824.211C1707.81 824.211 1709.08 825.477 1709.08 826.87Z" fill="white"/>
<path d="M1731.69 826.87C1731.69 828.389 1730.54 829.529 1729.02 829.529C1727.5 829.529 1726.35 828.389 1726.35 826.87C1726.35 825.35 1727.5 824.211 1729.02 824.211C1730.54 824.211 1731.69 825.477 1731.69 826.87Z" fill="white"/>
<path d="M1754.43 826.87C1754.43 828.389 1753.28 829.529 1751.76 829.529C1750.24 829.529 1749.09 828.389 1749.09 826.87C1749.09 825.35 1750.24 824.211 1751.76 824.211C1753.28 824.211 1754.43 825.477 1754.43 826.87Z" fill="white"/>
<path d="M1777.17 826.87C1777.17 828.389 1776.02 829.529 1774.5 829.529C1772.98 829.529 1771.83 828.389 1771.83 826.87C1771.83 825.35 1772.98 824.211 1774.5 824.211C1775.9 824.211 1777.17 825.477 1777.17 826.87Z" fill="white"/>
<path d="M1799.91 826.87C1799.91 828.389 1798.76 829.529 1797.24 829.529C1795.72 829.529 1794.57 828.389 1794.57 826.87C1794.57 825.35 1795.72 824.211 1797.24 824.211C1798.76 824.211 1799.91 825.477 1799.91 826.87Z" fill="white"/>
<path d="M1822.52 826.87C1822.52 828.389 1821.38 829.529 1819.85 829.529C1818.33 829.529 1817.18 828.389 1817.18 826.87C1817.18 825.35 1818.33 824.211 1819.85 824.211C1821.38 824.211 1822.52 825.477 1822.52 826.87Z" fill="white"/>
<path d="M1686.34 845.736C1686.34 847.256 1685.19 848.395 1683.67 848.395C1682.14 848.395 1681 847.256 1681 845.736C1681 844.217 1682.14 843.077 1683.67 843.077C1685.19 843.077 1686.34 844.217 1686.34 845.736Z" fill="white"/>
<path d="M1709.08 845.736C1709.08 847.256 1707.93 848.395 1706.41 848.395C1704.88 848.395 1703.74 847.256 1703.74 845.736C1703.74 844.217 1704.88 843.077 1706.41 843.077C1707.81 843.077 1709.08 844.217 1709.08 845.736Z" fill="white"/>
<path d="M1731.69 845.736C1731.69 847.256 1730.54 848.395 1729.02 848.395C1727.5 848.395 1726.35 847.256 1726.35 845.736C1726.35 844.217 1727.5 843.077 1729.02 843.077C1730.54 843.077 1731.69 844.217 1731.69 845.736Z" fill="white"/>
<path d="M1751.76 848.395C1753.23 848.395 1754.43 847.205 1754.43 845.736C1754.43 844.268 1753.23 843.077 1751.76 843.077C1750.29 843.077 1749.09 844.268 1749.09 845.736C1749.09 847.205 1750.29 848.395 1751.76 848.395Z" fill="white"/>
<path d="M1777.17 845.736C1777.17 847.256 1776.02 848.395 1774.5 848.395C1772.98 848.395 1771.83 847.256 1771.83 845.736C1771.83 844.217 1772.98 843.077 1774.5 843.077C1775.9 843.077 1777.17 844.217 1777.17 845.736Z" fill="white"/>
<path d="M1799.91 845.736C1799.91 847.256 1798.76 848.395 1797.24 848.395C1795.72 848.395 1794.57 847.256 1794.57 845.736C1794.57 844.217 1795.72 843.077 1797.24 843.077C1798.76 843.077 1799.91 844.217 1799.91 845.736Z" fill="white"/>
<path d="M1822.52 845.736C1822.52 847.256 1821.38 848.395 1819.85 848.395C1818.33 848.395 1817.18 847.256 1817.18 845.736C1817.18 844.217 1818.33 843.077 1819.85 843.077C1821.38 843.077 1822.52 844.217 1822.52 845.736Z" fill="white"/>
<path d="M1686.34 864.601C1686.34 866.121 1685.19 867.26 1683.67 867.26C1682.14 867.26 1681 866.121 1681 864.601C1681 863.082 1682.14 861.942 1683.67 861.942C1685.19 861.942 1686.34 863.082 1686.34 864.601Z" fill="white"/>
<path d="M1709.08 864.601C1709.08 866.121 1707.93 867.26 1706.41 867.26C1704.88 867.26 1703.74 866.121 1703.74 864.601C1703.74 863.082 1704.88 861.942 1706.41 861.942C1707.81 861.942 1709.08 863.082 1709.08 864.601Z" fill="white"/>
<path d="M1731.69 864.601C1731.69 866.121 1730.54 867.26 1729.02 867.26C1727.5 867.26 1726.35 866.121 1726.35 864.601C1726.35 863.082 1727.5 861.942 1729.02 861.942C1730.54 861.942 1731.69 863.082 1731.69 864.601Z" fill="white"/>
<path d="M1754.43 864.601C1754.43 866.121 1753.28 867.26 1751.76 867.26C1750.24 867.26 1749.09 866.121 1749.09 864.601C1749.09 863.082 1750.24 861.942 1751.76 861.942C1753.28 861.942 1754.43 863.082 1754.43 864.601Z" fill="white"/>
<path d="M1777.17 864.601C1777.17 866.121 1776.02 867.26 1774.5 867.26C1772.98 867.26 1771.83 866.121 1771.83 864.601C1771.83 863.082 1772.98 861.942 1774.5 861.942C1775.9 861.942 1777.17 863.082 1777.17 864.601Z" fill="white"/>
<path d="M1799.91 864.601C1799.91 866.121 1798.76 867.26 1797.24 867.26C1795.72 867.26 1794.57 866.121 1794.57 864.601C1794.57 863.082 1795.72 861.942 1797.24 861.942C1798.76 861.942 1799.91 863.082 1799.91 864.601Z" fill="white"/>
<path d="M1822.52 864.601C1822.52 866.121 1821.38 867.26 1819.85 867.26C1818.33 867.26 1817.18 866.121 1817.18 864.601C1817.18 863.082 1818.33 861.942 1819.85 861.942C1821.38 861.942 1822.52 863.082 1822.52 864.601Z" fill="white"/>
<path d="M1686.34 883.341C1686.34 884.86 1685.19 886 1683.67 886C1682.14 886 1681 884.86 1681 883.341C1681 881.821 1682.14 880.682 1683.67 880.682C1685.19 880.682 1686.34 881.948 1686.34 883.341Z" fill="white"/>
<path d="M1709.08 883.341C1709.08 884.86 1707.93 886 1706.41 886C1704.88 886 1703.74 884.86 1703.74 883.341C1703.74 881.821 1704.88 880.682 1706.41 880.682C1707.81 880.682 1709.08 881.948 1709.08 883.341Z" fill="white"/>
<path d="M1731.69 883.341C1731.69 884.86 1730.54 886 1729.02 886C1727.5 886 1726.35 884.86 1726.35 883.341C1726.35 881.821 1727.5 880.682 1729.02 880.682C1730.54 880.682 1731.69 881.948 1731.69 883.341Z" fill="white"/>
<path d="M1754.43 883.341C1754.43 884.86 1753.28 886 1751.76 886C1750.24 886 1749.09 884.86 1749.09 883.341C1749.09 881.821 1750.24 880.682 1751.76 880.682C1753.28 880.682 1754.43 881.948 1754.43 883.341Z" fill="white"/>
<path d="M1777.17 883.341C1777.17 884.86 1776.02 886 1774.5 886C1772.98 886 1771.83 884.86 1771.83 883.341C1771.83 881.821 1772.98 880.682 1774.5 880.682C1775.9 880.682 1777.17 881.948 1777.17 883.341Z" fill="white"/>
<path d="M1799.91 883.341C1799.91 884.86 1798.76 886 1797.24 886C1795.72 886 1794.57 884.86 1794.57 883.341C1794.57 881.821 1795.72 880.682 1797.24 880.682C1798.76 880.682 1799.91 881.948 1799.91 883.341Z" fill="white"/>
<path d="M1822.52 883.341C1822.52 884.86 1821.38 886 1819.85 886C1818.33 886 1817.18 884.86 1817.18 883.341C1817.18 881.821 1818.33 880.682 1819.85 880.682C1821.38 880.682 1822.52 881.948 1822.52 883.341Z" fill="white"/>
</g>
<g opacity="0.3">
<path d="M1679.81 75.2212L1689.47 84.8799L1663.78 110.563L1638.1 84.8799L1647.68 75.2943L1663.71 91.319L1679.81 75.2212Z" fill="white"/>
<path d="M1679.81 40.5386L1689.39 50.1241L1663.71 75.8075L1638.1 50.1973L1647.76 40.5386L1663.78 56.5632L1679.81 40.5386Z" fill="white"/>
<path d="M1679.73 5.78165L1689.39 15.4404L1663.78 41.0506L1638.1 15.3672L1647.68 5.78165L1663.71 21.8063L1679.73 5.78165Z" fill="white"/>
<path d="M1679.81 -28.9761L1689.47 -19.3174L1663.78 6.36601L1638.1 -19.3174L1647.76 -28.9761L1663.78 -12.9514L1679.81 -28.9761Z" fill="white"/>
</g>
<path opacity="0.3" d="M712 808.553C698.071 822.482 675.377 822.482 661.447 808.553C647.518 794.623 647.518 771.929 661.447 758L712 808.553Z" fill="white"/>
<g opacity="0.3">
<path d="M766.486 529.89C777.205 529.89 785.937 521.165 785.937 510.453C785.937 499.742 777.205 491.017 766.486 491.017L766.486 529.89Z" fill="white"/>
<path d="M736.141 529.89C746.861 529.89 755.592 521.165 755.592 510.453C755.592 499.742 746.861 491.017 736.141 491.017L736.141 529.89Z" fill="white"/>
<path d="M705.797 529.89C716.516 529.89 725.248 521.165 725.248 510.453C725.248 499.742 716.516 491.017 705.797 491.017V529.89Z" fill="white"/>
</g>
<g opacity="0.3">
<path d="M64.3012 144.921L64.3012 133L96 133L96 164.699L84.1694 164.699L84.1694 144.921L64.3012 144.921Z" fill="white"/>
<path d="M42.8989 166.325L42.8989 154.494L74.5977 154.494L74.5977 186.103L62.6768 186.103L62.6767 166.325L42.8989 166.325Z" fill="white"/>
<path d="M21.4951 187.819L21.4951 175.898L53.1035 175.898L53.1035 207.597L41.2729 207.597L41.2729 187.819L21.4951 187.819Z" fill="white"/>
<path d="M0.00142688 209.222L0.00142583 197.301L31.7002 197.301L31.7002 229L19.7793 229L19.7793 209.222L0.00142688 209.222Z" fill="white"/>
</g>
<defs>
<clipPath id="clip0_2543_343">
<rect width="284" height="284" fill="white" transform="translate(0 796)"/>
</clipPath>
<clipPath id="clip1_2543_343">
<rect width="187" height="137" fill="white" transform="translate(1681 749)"/>
</clipPath>
</defs>
</svg>
