<svg width="12" height="16" viewBox="0 0 12 16" fill="none" xmlns="http://www.w3.org/2000/svg">
<path fill-rule="evenodd" clip-rule="evenodd" d="M3.3335 9.00065C3.3335 8.63246 3.63197 8.33398 4.00016 8.33398H8.00016C8.36835 8.33398 8.66683 8.63246 8.66683 9.00065C8.66683 9.36884 8.36835 9.66732 8.00016 9.66732H4.00016C3.63197 9.66732 3.3335 9.36884 3.3335 9.00065Z" fill="#424551"/>
<path fill-rule="evenodd" clip-rule="evenodd" d="M3.3335 11.5007C3.3335 11.1325 3.63197 10.834 4.00016 10.834H6.00016C6.36835 10.834 6.66683 11.1325 6.66683 11.5007C6.66683 11.8688 6.36835 12.1673 6.00016 12.1673H4.00016C3.63197 12.1673 3.3335 11.8688 3.3335 11.5007Z" fill="#424551"/>
<path fill-rule="evenodd" clip-rule="evenodd" d="M4.02877 1.02925C4.1538 0.904222 4.32337 0.833984 4.50018 0.833984H9.00018C10.4729 0.833984 11.6668 2.02789 11.6668 3.50065L11.6668 12.5007C11.6668 13.9734 10.4729 15.1673 9.00018 15.1673H3.00016C1.5274 15.1673 0.333492 13.9734 0.333496 12.5006L0.333513 5.00065C0.333513 4.82384 0.403751 4.65427 0.528775 4.52925L4.02877 1.02925ZM4.33349 2.61015V4.83398H2.10965L4.33349 2.61015ZM1.66684 6.16732L1.66683 12.5006C1.66683 13.237 2.26378 13.834 3.00016 13.834H9.00018C9.73656 13.834 10.3335 13.237 10.3335 12.5007L10.3335 3.50065C10.3335 2.76427 9.73656 2.16732 9.00018 2.16732H5.66682V5.50065C5.66682 5.86884 5.36835 6.16732 5.00016 6.16732H1.66684Z" fill="#424551"/>
</svg>
